<?xml version="1.0" encoding="utf-8"?>
<!-- Generator: Adobe Illustrator 18.1.0, SVG Export Plug-In . SVG Version: 6.00 Build 0)  -->
<!DOCTYPE svg PUBLIC "-//W3C//DTD SVG 1.1//EN" "http://www.w3.org/Graphics/SVG/1.1/DTD/svg11.dtd">
<svg version="1.1" id="Layer_1" xmlns="http://www.w3.org/2000/svg" xmlns:xlink="http://www.w3.org/1999/xlink" x="0px" y="0px"
	 viewBox="0 0 575.4 371.3" enable-background="new 0 0 575.4 371.3" xml:space="preserve">
<g>
	<path fill="#FFFFFF" d="M565.8,86.6L313.3,335.9c-12.8,12.8-35.2,12.8-51.1,0c-12.8-12.8-12.8-35.2,0-51.1L514.7,35.4
		c12.8-12.8,35.2-12.8,51.1,0C578.6,48.2,578.6,70.6,565.8,86.6z"/>
	<path fill="#FFFFFF" d="M313.3,335.9c-12.8,12.8-35.2,12.8-51.1,0L9.6,86.6c-12.8-12.8-12.8-35.2,0-51.1
		c12.8-12.8,35.2-12.8,51.1,0l252.5,249.4C326.1,297.6,326.1,319.9,313.3,335.9z"/>
</g>
</svg>
