<?xml version="1.0" encoding="UTF-8" standalone="no"?>
<svg width="80px" height="80px" viewBox="0 0 80 80" version="1.1" xmlns="http://www.w3.org/2000/svg" xmlns:xlink="http://www.w3.org/1999/xlink">
    <!-- Generator: Sketch 3.6.1 (26313) - http://www.bohemiancoding.com/sketch -->
    <title>logo-hexagon</title>
    <desc>Created with Sketch.</desc>
    <defs></defs>
    <g id="Page-1" stroke="none" stroke-width="1" fill="none" fill-rule="evenodd">
        <g id="logo-hexagon">
            <g id="Group">
                <polygon id="Polygon-13" fill="#FF7171" points="40 0 74.6410162 20 74.6410162 60 40 80 5.35898385 60 5.35898385 20 "></polygon>
                <path d="M30.388,25.056 C28.084,25.056 27.112,25.884 27.112,27.828 L27.112,38.412 C27.112,40.356 28.084,41.148 30.388,41.148 L49.864,41.148 C52.168,41.148 53.14,40.356 53.14,38.412 L53.14,27.828 C53.14,25.884 52.168,25.056 49.864,25.056 L30.388,25.056 Z M50.44,31.86 L41.26,31.86 L41.26,27.468 L49.396,27.468 C50.08,27.468 50.44,27.648 50.44,28.296 L50.44,31.86 Z M41.26,38.808 L41.26,34.272 L50.44,34.272 L50.44,37.98 C50.44,38.628 50.08,38.808 49.396,38.808 L41.26,38.808 Z M38.632,38.808 L30.892,38.808 C30.172,38.808 29.812,38.628 29.812,37.98 L29.812,34.272 L38.632,34.272 L38.632,38.808 Z M38.632,27.468 L38.632,31.86 L29.812,31.86 L29.812,28.296 C29.812,27.648 30.172,27.468 30.892,27.468 L38.632,27.468 Z M32.836,52.992 C32.836,55.44 33.7,56.016 40.144,56.088 C40.684,56.124 41.224,56.124 41.728,56.124 C44.284,56.124 46.228,55.908 47.344,55.404 C47.884,55.188 48.28,54.9 48.568,54.504 C49.108,53.676 49.504,52.128 49.612,50.292 L49.612,50.148 C49.612,49.536 49.18,49.068 48.424,48.996 L48.172,48.996 C47.452,48.996 47.02,49.392 46.984,49.932 C46.912,51.048 46.768,52.056 46.444,52.632 C46.084,53.352 45.292,53.64 41.332,53.64 C36.256,53.64 35.644,53.46 35.644,52.236 L35.644,44.46 C35.644,43.848 35.032,43.452 34.204,43.452 C33.412,43.452 32.836,43.848 32.836,44.46 L32.836,52.992 Z M27.472,44.82 C26.824,47.808 25.42,50.796 23.836,52.776 C23.62,53.028 23.548,53.28 23.548,53.532 C23.548,54 23.836,54.432 24.304,54.72 C24.556,54.9 24.88,55.008 25.168,55.008 C25.6,55.008 26.032,54.792 26.356,54.36 C28.048,52.02 29.488,48.744 30.244,45.54 C30.28,45.432 30.28,45.324 30.28,45.18 C30.28,44.604 29.884,44.208 29.2,44.028 C28.984,43.992 28.804,43.956 28.624,43.956 C28.048,43.956 27.58,44.28 27.472,44.82 L27.472,44.82 Z M38.812,42.84 C38.452,43.092 38.272,43.488 38.272,43.848 C38.272,44.1 38.344,44.316 38.524,44.496 C39.964,45.936 41.368,47.52 42.376,49.104 C42.592,49.464 42.952,49.644 43.312,49.644 C43.672,49.644 43.996,49.536 44.32,49.284 C44.716,49.032 44.932,48.6 44.932,48.168 C44.932,47.916 44.86,47.664 44.716,47.448 C43.6,45.828 42.016,44.028 40.648,42.804 C40.396,42.552 40.108,42.444 39.784,42.444 C39.46,42.444 39.136,42.588 38.812,42.84 L38.812,42.84 Z M49.648,43.884 C49.18,44.136 48.892,44.568 48.892,45 C48.892,45.216 48.964,45.432 49.108,45.648 C51.088,48.24 52.816,51.3 53.788,53.568 C54.04,54.18 54.472,54.468 55.012,54.468 C55.228,54.468 55.48,54.396 55.768,54.288 C56.308,54.036 56.632,53.568 56.632,53.028 C56.632,52.812 56.596,52.56 56.488,52.344 C55.3,49.644 53.536,46.764 51.52,44.172 C51.232,43.812 50.872,43.632 50.44,43.632 C50.188,43.632 49.9,43.704 49.648,43.884 L49.648,43.884 Z" id="æ€" fill="#FFFFFF"></path>
            </g>
        </g>
    </g>
</svg>